<svg width="379" height="416" viewBox="0 0 379 416" fill="none" xmlns="http://www.w3.org/2000/svg">
<mask id="mask0_265_16" style="mask-type:alpha" maskUnits="userSpaceOnUse" x="0" y="0" width="379" height="416">
<path d="M378.75 414C378.75 414.966 377.967 415.75 377 415.75H2C1.0335 415.75 0.25 414.966 0.25 414L0.250001 2.00001C0.250001 1.03351 1.0335 0.25 2 0.25L377 0.25C377.967 0.25 378.75 1.0335 378.75 2V414Z" fill="white"/>
<path d="M378.75 414C378.75 414.966 377.967 415.75 377 415.75H2C1.0335 415.75 0.25 414.966 0.25 414L0.250001 2.00001C0.250001 1.03351 1.0335 0.25 2 0.25L377 0.25C377.967 0.25 378.75 1.0335 378.75 2V414Z" stroke="white" stroke-width="0.5"/>
</mask>
<g mask="url(#mask0_265_16)">
<path fill-rule="evenodd" clip-rule="evenodd" d="M379 414C379 415.105 378.105 416 377 416H2C0.895428 416 1.70034e-09 415.105 3.79781e-09 414L7.86147e-07 2.00001C7.88244e-07 0.895438 0.895431 5.37191e-10 2 1.19985e-09L377 2.26172e-07C378.105 2.26834e-07 379 0.895431 379 2V414Z" fill="#252525"/>
</g>
<path d="M84.5525 105.096C85.0885 105.24 85.4965 105.488 85.7765 105.84C86.0565 106.184 86.1965 106.616 86.1965 107.136C86.1965 107.872 85.9245 108.444 85.3805 108.852C84.8365 109.26 84.0485 109.464 83.0165 109.464H79.0325V101.064H82.7885C83.7325 101.064 84.4685 101.252 84.9965 101.628C85.5245 102.004 85.7885 102.536 85.7885 103.224C85.7885 103.664 85.6805 104.044 85.4645 104.364C85.2565 104.684 84.9525 104.928 84.5525 105.096ZM80.5685 104.652H82.6565C83.1605 104.652 83.5445 104.552 83.8085 104.352C84.0725 104.152 84.2045 103.856 84.2045 103.464C84.2045 103.072 84.0725 102.776 83.8085 102.576C83.5445 102.368 83.1605 102.264 82.6565 102.264H80.5685V104.652ZM82.9685 108.264C84.0725 108.264 84.6245 107.848 84.6245 107.016C84.6245 106.2 84.0725 105.792 82.9685 105.792H80.5685V108.264H82.9685ZM92.8817 104.328H90.6377V109.464H89.1377V104.328H86.8817V103.056H92.8817V104.328Z" fill="#737373"/>
<path d="M33.0926 101.064V109.464H31.5566V102.384H27.2006V109.464H25.6646V101.064H33.0926ZM35.2932 103.056H36.7932V105.66H40.0212V103.056H41.5212V109.464H40.0212V106.932H36.7932V109.464H35.2932V103.056Z" fill="#737373"/>
<path d="M189.821 101.064V109.464H188.273V106.296C187.481 106.592 186.729 106.74 186.017 106.74C184.945 106.74 184.117 106.484 183.533 105.972C182.957 105.452 182.669 104.708 182.669 103.74V101.064H184.217V103.572C184.217 104.164 184.389 104.616 184.733 104.928C185.077 105.24 185.569 105.396 186.209 105.396C186.937 105.396 187.625 105.248 188.273 104.952V101.064H189.821ZM197.083 104.328H194.839V109.464H193.339V104.328H191.083V103.056H197.083V104.328Z" fill="#737373"/>
<path d="M242.37 101.064V109.464H240.834V102.384H236.478V109.464H234.942V101.064H242.37ZM249.647 104.328H247.403V109.464H245.903V104.328H243.647V103.056H249.647V104.328Z" fill="#737373"/>
<path d="M290.655 109.584C289.807 109.584 289.039 109.4 288.351 109.032C287.671 108.656 287.135 108.14 286.743 107.484C286.359 106.828 286.167 106.088 286.167 105.264C286.167 104.44 286.363 103.7 286.755 103.044C287.147 102.388 287.683 101.876 288.363 101.508C289.051 101.132 289.819 100.944 290.667 100.944C291.355 100.944 291.983 101.064 292.551 101.304C293.119 101.544 293.599 101.892 293.991 102.348L292.983 103.296C292.375 102.64 291.627 102.312 290.739 102.312C290.163 102.312 289.647 102.44 289.191 102.696C288.735 102.944 288.379 103.292 288.123 103.74C287.867 104.188 287.739 104.696 287.739 105.264C287.739 105.832 287.867 106.34 288.123 106.788C288.379 107.236 288.735 107.588 289.191 107.844C289.647 108.092 290.163 108.216 290.739 108.216C291.627 108.216 292.375 107.884 292.983 107.22L293.991 108.18C293.599 108.636 293.115 108.984 292.539 109.224C291.971 109.464 291.343 109.584 290.655 109.584ZM298.563 103.368C299.171 103.368 299.707 103.5 300.171 103.764C300.635 104.02 300.995 104.38 301.251 104.844C301.516 105.308 301.648 105.84 301.648 106.44C301.648 107.056 301.504 107.604 301.216 108.084C300.928 108.556 300.523 108.924 300.003 109.188C299.484 109.452 298.891 109.584 298.227 109.584C297.115 109.584 296.255 109.216 295.647 108.48C295.039 107.744 294.735 106.684 294.735 105.3C294.735 104.012 295.011 102.992 295.563 102.24C296.115 101.488 296.959 100.992 298.095 100.752L301.071 100.116L301.287 101.46L298.587 102.012C297.811 102.172 297.231 102.444 296.847 102.828C296.463 103.212 296.239 103.752 296.175 104.448C296.463 104.104 296.811 103.84 297.219 103.656C297.627 103.464 298.075 103.368 298.563 103.368ZM298.263 108.372C298.815 108.372 299.259 108.196 299.595 107.844C299.939 107.484 300.112 107.028 300.112 106.476C300.112 105.924 299.939 105.48 299.595 105.144C299.259 104.808 298.815 104.64 298.263 104.64C297.703 104.64 297.251 104.808 296.907 105.144C296.563 105.48 296.391 105.924 296.391 106.476C296.391 107.036 296.563 107.492 296.907 107.844C297.259 108.196 297.711 108.372 298.263 108.372Z" fill="#737373"/>
<path d="M344.711 105.096C345.247 105.24 345.655 105.488 345.935 105.84C346.215 106.184 346.355 106.616 346.355 107.136C346.355 107.872 346.083 108.444 345.539 108.852C344.995 109.26 344.207 109.464 343.175 109.464H339.191V101.064H342.947C343.891 101.064 344.627 101.252 345.155 101.628C345.683 102.004 345.947 102.536 345.947 103.224C345.947 103.664 345.839 104.044 345.623 104.364C345.415 104.684 345.111 104.928 344.711 105.096ZM340.727 104.652H342.815C343.319 104.652 343.703 104.552 343.967 104.352C344.231 104.152 344.363 103.856 344.363 103.464C344.363 103.072 344.231 102.776 343.967 102.576C343.703 102.368 343.319 102.264 342.815 102.264H340.727V104.652ZM343.127 108.264C344.231 108.264 344.783 107.848 344.783 107.016C344.783 106.2 344.231 105.792 343.127 105.792H340.727V108.264H343.127ZM350.88 109.548C350.216 109.548 349.62 109.408 349.092 109.128C348.564 108.848 348.152 108.46 347.856 107.964C347.56 107.46 347.412 106.892 347.412 106.26C347.412 105.628 347.56 105.064 347.856 104.568C348.152 104.072 348.56 103.684 349.08 103.404C349.608 103.124 350.208 102.984 350.88 102.984C351.512 102.984 352.064 103.112 352.536 103.368C353.016 103.624 353.376 103.992 353.616 104.472L352.464 105.144C352.28 104.848 352.048 104.628 351.768 104.484C351.496 104.332 351.196 104.256 350.868 104.256C350.308 104.256 349.844 104.44 349.476 104.808C349.108 105.168 348.924 105.652 348.924 106.26C348.924 106.868 349.104 107.356 349.464 107.724C349.832 108.084 350.3 108.264 350.868 108.264C351.196 108.264 351.496 108.192 351.768 108.048C352.048 107.896 352.28 107.672 352.464 107.376L353.616 108.048C353.368 108.528 353.004 108.9 352.524 109.164C352.052 109.42 351.504 109.548 350.88 109.548Z" fill="#737373"/>
<path d="M134.292 109.584C133.444 109.584 132.676 109.4 131.988 109.032C131.308 108.656 130.772 108.14 130.38 107.484C129.996 106.828 129.804 106.088 129.804 105.264C129.804 104.44 130 103.7 130.392 103.044C130.784 102.388 131.32 101.876 132 101.508C132.688 101.132 133.456 100.944 134.304 100.944C134.992 100.944 135.62 101.064 136.188 101.304C136.756 101.544 137.236 101.892 137.628 102.348L136.62 103.296C136.012 102.64 135.264 102.312 134.376 102.312C133.8 102.312 133.284 102.44 132.828 102.696C132.372 102.944 132.016 103.292 131.76 103.74C131.504 104.188 131.376 104.696 131.376 105.264C131.376 105.832 131.504 106.34 131.76 106.788C132.016 107.236 132.372 107.588 132.828 107.844C133.284 108.092 133.8 108.216 134.376 108.216C135.264 108.216 136.012 107.884 136.62 107.22L137.628 108.18C137.236 108.636 136.752 108.984 136.176 109.224C135.608 109.464 134.98 109.584 134.292 109.584ZM142.461 102.984C143.085 102.984 143.641 103.12 144.129 103.392C144.625 103.664 145.013 104.048 145.293 104.544C145.573 105.04 145.713 105.612 145.713 106.26C145.713 106.908 145.573 107.484 145.293 107.988C145.013 108.484 144.625 108.868 144.129 109.14C143.641 109.412 143.085 109.548 142.461 109.548C141.597 109.548 140.913 109.26 140.409 108.684V111.792H138.909V103.056H140.337V103.896C140.585 103.592 140.889 103.364 141.249 103.212C141.617 103.06 142.021 102.984 142.461 102.984ZM142.293 108.264C142.845 108.264 143.297 108.08 143.649 107.712C144.009 107.344 144.189 106.86 144.189 106.26C144.189 105.66 144.009 105.176 143.649 104.808C143.297 104.44 142.845 104.256 142.293 104.256C141.933 104.256 141.609 104.34 141.321 104.508C141.033 104.668 140.805 104.9 140.637 105.204C140.469 105.508 140.385 105.86 140.385 106.26C140.385 106.66 140.469 107.012 140.637 107.316C140.805 107.62 141.033 107.856 141.321 108.024C141.609 108.184 141.933 108.264 142.293 108.264Z" fill="#737373"/>
<path fill-rule="evenodd" clip-rule="evenodd" d="M293.056 268.235C307.447 268.235 319.112 256.541 319.112 242.117C319.112 227.693 307.447 216 293.056 216C278.666 216 267 227.693 267 242.117C267 256.541 278.666 268.235 293.056 268.235Z" stroke="#34C759"/>
<path d="M29.6471 382.508C30.4711 382.588 31.0991 382.844 31.5311 383.276C31.9631 383.7 32.1791 384.244 32.1791 384.908C32.1791 385.388 32.0591 385.824 31.8191 386.216C31.5791 386.6 31.2191 386.908 30.7391 387.14C30.2671 387.364 29.6871 387.476 28.9991 387.476C28.3991 387.476 27.8231 387.388 27.2711 387.212C26.7191 387.028 26.2671 386.776 25.9151 386.456L26.4671 385.508C26.7551 385.78 27.1231 386 27.5711 386.168C28.0191 386.328 28.4951 386.408 28.9991 386.408C29.6231 386.408 30.1071 386.276 30.4511 386.012C30.8031 385.748 30.9791 385.384 30.9791 384.92C30.9791 384.456 30.8071 384.096 30.4631 383.84C30.1191 383.584 29.5991 383.456 28.9031 383.456H28.2311V382.616L30.3431 380.024H26.2991V378.98H31.8431V379.796L29.6471 382.508ZM36.7303 387.476C36.0663 387.476 35.4743 387.308 34.9543 386.972C34.4423 386.628 34.0383 386.132 33.7423 385.484C33.4463 384.836 33.2983 384.068 33.2983 383.18C33.2983 382.292 33.4463 381.524 33.7423 380.876C34.0383 380.228 34.4423 379.736 34.9543 379.4C35.4743 379.056 36.0663 378.884 36.7303 378.884C37.3863 378.884 37.9703 379.056 38.4823 379.4C39.0023 379.736 39.4103 380.228 39.7063 380.876C40.0023 381.524 40.1503 382.292 40.1503 383.18C40.1503 384.068 40.0023 384.836 39.7063 385.484C39.4103 386.132 39.0023 386.628 38.4823 386.972C37.9703 387.308 37.3863 387.476 36.7303 387.476ZM36.7303 386.408C37.4023 386.408 37.9383 386.132 38.3383 385.58C38.7463 385.028 38.9503 384.228 38.9503 383.18C38.9503 382.132 38.7463 381.332 38.3383 380.78C37.9383 380.228 37.4023 379.952 36.7303 379.952C36.0503 379.952 35.5063 380.228 35.0983 380.78C34.6983 381.332 34.4983 382.132 34.4983 383.18C34.4983 384.228 34.6983 385.028 35.0983 385.58C35.5063 386.132 36.0503 386.408 36.7303 386.408Z" fill="white" fill-opacity="0.75"/>
<path d="M83.5408 382.508C84.3648 382.588 84.9928 382.844 85.4248 383.276C85.8568 383.7 86.0728 384.244 86.0728 384.908C86.0728 385.388 85.9528 385.824 85.7128 386.216C85.4728 386.6 85.1128 386.908 84.6328 387.14C84.1608 387.364 83.5808 387.476 82.8928 387.476C82.2928 387.476 81.7168 387.388 81.1648 387.212C80.6128 387.028 80.1608 386.776 79.8088 386.456L80.3608 385.508C80.6488 385.78 81.0168 386 81.4648 386.168C81.9128 386.328 82.3888 386.408 82.8928 386.408C83.5168 386.408 84.0008 386.276 84.3448 386.012C84.6968 385.748 84.8728 385.384 84.8728 384.92C84.8728 384.456 84.7008 384.096 84.3568 383.84C84.0128 383.584 83.4928 383.456 82.7968 383.456H82.1248V382.616L84.2368 380.024H80.1928V378.98H85.7368V379.796L83.5408 382.508ZM89.796 378.98V387.38H88.608V380.024H86.712V378.98H89.796Z" fill="white" fill-opacity="0.75"/>
<path d="M346.925 142.55V150.95H345.737V143.594H343.841V142.55H346.925Z" fill="white" fill-opacity="0.75"/>
<path d="M30.5468 284.757V293.157H29.3588V285.801H27.4628V284.757H30.5468ZM36.0082 288.057C36.5602 288.057 37.0522 288.161 37.4842 288.369C37.9242 288.577 38.2682 288.877 38.5162 289.269C38.7642 289.653 38.8882 290.097 38.8882 290.601C38.8882 291.129 38.7562 291.593 38.4922 291.993C38.2362 292.393 37.8802 292.705 37.4242 292.929C36.9762 293.145 36.4722 293.253 35.9122 293.253C34.7842 293.253 33.9122 292.889 33.2962 292.161C32.6882 291.433 32.3842 290.401 32.3842 289.065C32.3842 288.129 32.5482 287.333 32.8762 286.677C33.2122 286.013 33.6762 285.513 34.2682 285.177C34.8682 284.833 35.5642 284.661 36.3562 284.661C36.7642 284.661 37.1482 284.705 37.5082 284.793C37.8682 284.873 38.1802 284.993 38.4442 285.153L37.9882 286.089C37.5882 285.825 37.0522 285.693 36.3802 285.693C35.5082 285.693 34.8242 285.965 34.3282 286.509C33.8322 287.045 33.5842 287.829 33.5842 288.861C33.5842 288.989 33.5882 289.089 33.5962 289.161C33.8362 288.801 34.1642 288.529 34.5802 288.345C35.0042 288.153 35.4802 288.057 36.0082 288.057ZM35.8642 292.281C36.4162 292.281 36.8642 292.133 37.2082 291.837C37.5522 291.541 37.7242 291.145 37.7242 290.649C37.7242 290.153 37.5482 289.761 37.1962 289.473C36.8522 289.177 36.3882 289.029 35.8042 289.029C35.4282 289.029 35.0922 289.101 34.7962 289.245C34.5082 289.389 34.2802 289.585 34.1122 289.833C33.9522 290.081 33.8722 290.357 33.8722 290.661C33.8722 290.957 33.9482 291.229 34.1002 291.477C34.2602 291.717 34.4882 291.913 34.7842 292.065C35.0882 292.209 35.4482 292.281 35.8642 292.281Z" fill="white" fill-opacity="0.75"/>
<path d="M82.7765 284.757V293.157H81.5885V285.801H79.6925V284.757H82.7765ZM90.7339 284.757V285.573L87.3379 293.157H86.0659L89.3899 285.801H85.5499V287.301H84.3979V284.757H90.7339Z" fill="white" fill-opacity="0.75"/>
<path d="M186.884 284.757V293.157H185.696V285.801H183.8V284.757H186.884ZM191.446 284.661C192.574 284.661 193.442 285.025 194.05 285.753C194.666 286.481 194.974 287.513 194.974 288.849C194.974 289.785 194.806 290.585 194.47 291.249C194.142 291.905 193.678 292.405 193.078 292.749C192.486 293.085 191.794 293.253 191.002 293.253C190.594 293.253 190.21 293.213 189.85 293.133C189.49 293.045 189.178 292.921 188.914 292.761L189.37 291.825C189.778 292.089 190.318 292.221 190.99 292.221C191.862 292.221 192.542 291.953 193.03 291.417C193.526 290.873 193.774 290.085 193.774 289.053V288.753C193.534 289.113 193.202 289.389 192.778 289.581C192.354 289.765 191.878 289.857 191.35 289.857C190.798 289.857 190.302 289.753 189.862 289.545C189.43 289.337 189.09 289.041 188.842 288.657C188.602 288.265 188.482 287.817 188.482 287.313C188.482 286.785 188.61 286.321 188.866 285.921C189.13 285.521 189.486 285.213 189.934 284.997C190.382 284.773 190.886 284.661 191.446 284.661ZM191.554 288.885C191.93 288.885 192.266 288.813 192.562 288.669C192.858 288.525 193.086 288.329 193.246 288.081C193.414 287.833 193.498 287.557 193.498 287.253C193.498 286.957 193.418 286.689 193.258 286.449C193.106 286.201 192.878 286.005 192.574 285.861C192.278 285.709 191.918 285.633 191.494 285.633C190.942 285.633 190.494 285.781 190.15 286.077C189.814 286.373 189.646 286.769 189.646 287.265C189.646 287.761 189.818 288.157 190.162 288.453C190.506 288.741 190.97 288.885 191.554 288.885Z" fill="white" fill-opacity="0.75"/>
<path d="M240.791 292.113V293.157H234.755V292.341L238.175 289.041C238.591 288.641 238.871 288.297 239.015 288.009C239.159 287.713 239.231 287.417 239.231 287.121C239.231 286.681 239.075 286.341 238.763 286.101C238.459 285.853 238.019 285.729 237.443 285.729C236.515 285.729 235.799 286.033 235.295 286.641L234.479 285.933C234.807 285.533 235.235 285.221 235.763 284.997C236.299 284.773 236.895 284.661 237.551 284.661C238.431 284.661 239.131 284.873 239.651 285.297C240.171 285.713 240.431 286.281 240.431 287.001C240.431 287.449 240.335 287.873 240.143 288.273C239.951 288.673 239.587 289.129 239.051 289.641L236.483 292.113H240.791ZM245.174 293.253C244.51 293.253 243.918 293.085 243.398 292.749C242.886 292.405 242.482 291.909 242.186 291.261C241.89 290.613 241.742 289.845 241.742 288.957C241.742 288.069 241.89 287.301 242.186 286.653C242.482 286.005 242.886 285.513 243.398 285.177C243.918 284.833 244.51 284.661 245.174 284.661C245.83 284.661 246.414 284.833 246.926 285.177C247.446 285.513 247.854 286.005 248.15 286.653C248.446 287.301 248.594 288.069 248.594 288.957C248.594 289.845 248.446 290.613 248.15 291.261C247.854 291.909 247.446 292.405 246.926 292.749C246.414 293.085 245.83 293.253 245.174 293.253ZM245.174 292.185C245.846 292.185 246.382 291.909 246.782 291.357C247.19 290.805 247.394 290.005 247.394 288.957C247.394 287.909 247.19 287.109 246.782 286.557C246.382 286.005 245.846 285.729 245.174 285.729C244.494 285.729 243.95 286.005 243.542 286.557C243.142 287.109 242.942 287.909 242.942 288.957C242.942 290.005 243.142 290.805 243.542 291.357C243.95 291.909 244.494 292.185 245.174 292.185Z" fill="#34C759"/>
<path d="M294.667 292.113V293.157H288.631V292.341L292.051 289.041C292.467 288.641 292.747 288.297 292.891 288.009C293.035 287.713 293.107 287.417 293.107 287.121C293.107 286.681 292.951 286.341 292.639 286.101C292.335 285.853 291.895 285.729 291.319 285.729C290.391 285.729 289.675 286.033 289.171 286.641L288.355 285.933C288.683 285.533 289.111 285.221 289.639 284.997C290.175 284.773 290.771 284.661 291.427 284.661C292.307 284.661 293.007 284.873 293.527 285.297C294.047 285.713 294.307 286.281 294.307 287.001C294.307 287.449 294.211 287.873 294.019 288.273C293.827 288.673 293.463 289.129 292.927 289.641L290.359 292.113H294.667ZM298.258 284.757V293.157H297.07V285.801H295.174V284.757H298.258Z" fill="#34C759"/>
<path d="M345.555 292.113V293.157H339.519V292.341L342.939 289.041C343.355 288.641 343.635 288.297 343.779 288.009C343.923 287.713 343.995 287.417 343.995 287.121C343.995 286.681 343.839 286.341 343.527 286.101C343.223 285.853 342.783 285.729 342.207 285.729C341.279 285.729 340.563 286.033 340.059 286.641L339.243 285.933C339.571 285.533 339.999 285.221 340.527 284.997C341.063 284.773 341.659 284.661 342.315 284.661C343.195 284.661 343.895 284.873 344.415 285.297C344.935 285.713 345.195 286.281 345.195 287.001C345.195 287.449 345.099 287.873 344.907 288.273C344.715 288.673 344.351 289.129 343.815 289.641L341.247 292.113H345.555ZM352.446 292.113V293.157H346.41V292.341L349.83 289.041C350.246 288.641 350.526 288.297 350.67 288.009C350.814 287.713 350.886 287.417 350.886 287.121C350.886 286.681 350.73 286.341 350.418 286.101C350.114 285.853 349.674 285.729 349.098 285.729C348.17 285.729 347.454 286.033 346.95 286.641L346.134 285.933C346.462 285.533 346.89 285.221 347.418 284.997C347.954 284.773 348.55 284.661 349.206 284.661C350.086 284.661 350.786 284.873 351.306 285.297C351.826 285.713 352.086 286.281 352.086 287.001C352.086 287.449 351.99 287.873 351.798 288.273C351.606 288.673 351.242 289.129 350.706 289.641L348.138 292.113H352.446Z" fill="white" fill-opacity="0.75"/>
<path d="M134.614 284.757V293.157H133.426V285.801H131.53V284.757H134.614ZM141.587 288.753C142.067 288.937 142.435 289.201 142.691 289.545C142.947 289.889 143.075 290.301 143.075 290.781C143.075 291.285 142.939 291.725 142.667 292.101C142.395 292.469 142.007 292.753 141.503 292.953C140.999 293.153 140.407 293.253 139.727 293.253C139.055 293.253 138.467 293.153 137.963 292.953C137.467 292.753 137.083 292.469 136.811 292.101C136.539 291.725 136.403 291.285 136.403 290.781C136.403 290.301 136.527 289.889 136.775 289.545C137.031 289.201 137.399 288.937 137.879 288.753C137.495 288.569 137.203 288.325 137.003 288.021C136.803 287.717 136.703 287.357 136.703 286.941C136.703 286.477 136.827 286.073 137.075 285.729C137.331 285.385 137.687 285.121 138.143 284.937C138.599 284.753 139.127 284.661 139.727 284.661C140.335 284.661 140.867 284.753 141.323 284.937C141.787 285.121 142.143 285.385 142.391 285.729C142.647 286.073 142.775 286.477 142.775 286.941C142.775 287.349 142.671 287.709 142.463 288.021C142.263 288.325 141.971 288.569 141.587 288.753ZM139.727 285.633C139.159 285.633 138.711 285.757 138.383 286.005C138.055 286.245 137.891 286.573 137.891 286.989C137.891 287.405 138.051 287.733 138.371 287.973C138.699 288.213 139.151 288.333 139.727 288.333C140.311 288.333 140.767 288.213 141.095 287.973C141.431 287.733 141.599 287.405 141.599 286.989C141.599 286.573 141.427 286.245 141.083 286.005C140.747 285.757 140.295 285.633 139.727 285.633ZM139.727 292.281C140.391 292.281 140.915 292.145 141.299 291.873C141.683 291.593 141.875 291.217 141.875 290.745C141.875 290.281 141.683 289.917 141.299 289.653C140.915 289.381 140.391 289.245 139.727 289.245C139.063 289.245 138.543 289.381 138.167 289.653C137.791 289.917 137.603 290.281 137.603 290.745C137.603 291.217 137.791 291.593 138.167 291.873C138.543 292.145 139.063 292.281 139.727 292.281Z" fill="#34C759"/>
<path d="M32.8917 339.599V340.643H26.8557V339.827L30.2757 336.527C30.6917 336.127 30.9717 335.783 31.1157 335.495C31.2597 335.199 31.3317 334.903 31.3317 334.607C31.3317 334.167 31.1757 333.827 30.8637 333.587C30.5597 333.339 30.1197 333.215 29.5437 333.215C28.6157 333.215 27.8997 333.519 27.3957 334.127L26.5797 333.419C26.9077 333.019 27.3357 332.707 27.8637 332.483C28.3997 332.259 28.9957 332.147 29.6517 332.147C30.5317 332.147 31.2317 332.359 31.7517 332.783C32.2717 333.199 32.5317 333.767 32.5317 334.487C32.5317 334.935 32.4357 335.359 32.2437 335.759C32.0517 336.159 31.6877 336.615 31.1517 337.127L28.5837 339.599H32.8917ZM37.0943 335.771C37.9183 335.851 38.5463 336.107 38.9783 336.539C39.4103 336.963 39.6263 337.507 39.6263 338.171C39.6263 338.651 39.5063 339.087 39.2663 339.479C39.0263 339.863 38.6663 340.171 38.1863 340.403C37.7143 340.627 37.1343 340.739 36.4463 340.739C35.8463 340.739 35.2703 340.651 34.7183 340.475C34.1663 340.291 33.7143 340.039 33.3623 339.719L33.9143 338.771C34.2023 339.043 34.5703 339.263 35.0183 339.431C35.4663 339.591 35.9423 339.671 36.4463 339.671C37.0703 339.671 37.5543 339.539 37.8983 339.275C38.2503 339.011 38.4263 338.647 38.4263 338.183C38.4263 337.719 38.2543 337.359 37.9103 337.103C37.5663 336.847 37.0463 336.719 36.3503 336.719H35.6783V335.879L37.7903 333.287H33.7463V332.243H39.2903V333.059L37.0943 335.771Z" fill="white" fill-opacity="0.75"/>
<path d="M84.5355 339.599V340.643H78.4995V339.827L81.9195 336.527C82.3355 336.127 82.6155 335.783 82.7595 335.495C82.9035 335.199 82.9755 334.903 82.9755 334.607C82.9755 334.167 82.8195 333.827 82.5075 333.587C82.2035 333.339 81.7635 333.215 81.1875 333.215C80.2595 333.215 79.5435 333.519 79.0395 334.127L78.2235 333.419C78.5515 333.019 78.9795 332.707 79.5075 332.483C80.0435 332.259 80.6395 332.147 81.2955 332.147C82.1755 332.147 82.8755 332.359 83.3955 332.783C83.9155 333.199 84.1755 333.767 84.1755 334.487C84.1755 334.935 84.0795 335.359 83.8875 335.759C83.6955 336.159 83.3315 336.615 82.7955 337.127L80.2275 339.599H84.5355ZM92.6074 338.579H91.0114V340.643H89.8474V338.579H85.1794V337.739L89.4754 332.243H90.7714L86.6554 337.547H89.8834V335.723H91.0114V337.547H92.6074V338.579Z" fill="white" fill-opacity="0.75"/>
<path d="M188.977 339.599V340.643H182.941V339.827L186.361 336.527C186.777 336.127 187.057 335.783 187.201 335.495C187.345 335.199 187.417 334.903 187.417 334.607C187.417 334.167 187.261 333.827 186.949 333.587C186.645 333.339 186.205 333.215 185.629 333.215C184.701 333.215 183.985 333.519 183.481 334.127L182.665 333.419C182.993 333.019 183.421 332.707 183.949 332.483C184.485 332.259 185.081 332.147 185.737 332.147C186.617 332.147 187.317 332.359 187.837 332.783C188.357 333.199 188.617 333.767 188.617 334.487C188.617 334.935 188.521 335.359 188.329 335.759C188.137 336.159 187.773 336.615 187.237 337.127L184.669 339.599H188.977ZM193.553 335.543C194.105 335.543 194.597 335.647 195.029 335.855C195.469 336.063 195.813 336.363 196.061 336.755C196.309 337.139 196.433 337.583 196.433 338.087C196.433 338.615 196.301 339.079 196.037 339.479C195.781 339.879 195.425 340.191 194.969 340.415C194.521 340.631 194.017 340.739 193.457 340.739C192.329 340.739 191.457 340.375 190.841 339.647C190.233 338.919 189.929 337.887 189.929 336.551C189.929 335.615 190.093 334.819 190.421 334.163C190.757 333.499 191.221 332.999 191.813 332.663C192.413 332.319 193.109 332.147 193.901 332.147C194.309 332.147 194.693 332.191 195.053 332.279C195.413 332.359 195.725 332.479 195.989 332.639L195.533 333.575C195.133 333.311 194.597 333.179 193.925 333.179C193.053 333.179 192.369 333.451 191.873 333.995C191.377 334.531 191.129 335.315 191.129 336.347C191.129 336.475 191.133 336.575 191.141 336.647C191.381 336.287 191.709 336.015 192.125 335.831C192.549 335.639 193.025 335.543 193.553 335.543ZM193.409 339.767C193.961 339.767 194.409 339.619 194.753 339.323C195.097 339.027 195.269 338.631 195.269 338.135C195.269 337.639 195.093 337.247 194.741 336.959C194.397 336.663 193.933 336.515 193.349 336.515C192.973 336.515 192.637 336.587 192.341 336.731C192.053 336.875 191.825 337.071 191.657 337.319C191.497 337.567 191.417 337.843 191.417 338.147C191.417 338.443 191.493 338.715 191.645 338.963C191.805 339.203 192.033 339.399 192.329 339.551C192.633 339.695 192.993 339.767 193.409 339.767Z" fill="#34C759"/>
<path d="M241.207 339.599V340.643H235.171V339.827L238.591 336.527C239.007 336.127 239.287 335.783 239.431 335.495C239.575 335.199 239.647 334.903 239.647 334.607C239.647 334.167 239.491 333.827 239.179 333.587C238.875 333.339 238.435 333.215 237.859 333.215C236.931 333.215 236.215 333.519 235.711 334.127L234.895 333.419C235.223 333.019 235.651 332.707 236.179 332.483C236.715 332.259 237.311 332.147 237.967 332.147C238.847 332.147 239.547 332.359 240.067 332.783C240.587 333.199 240.847 333.767 240.847 334.487C240.847 334.935 240.751 335.359 240.559 335.759C240.367 336.159 240.003 336.615 239.467 337.127L236.899 339.599H241.207ZM248.278 332.243V333.059L244.882 340.643H243.61L246.934 333.287H243.094V334.787H241.942V332.243H248.278Z" fill="white" fill-opacity="0.75"/>
<path d="M293.026 339.599V340.643H286.99V339.827L290.41 336.527C290.826 336.127 291.106 335.783 291.25 335.495C291.394 335.199 291.466 334.903 291.466 334.607C291.466 334.167 291.31 333.827 290.998 333.587C290.694 333.339 290.254 333.215 289.678 333.215C288.75 333.215 288.034 333.519 287.53 334.127L286.714 333.419C287.042 333.019 287.47 332.707 287.998 332.483C288.534 332.259 289.13 332.147 289.786 332.147C290.666 332.147 291.366 332.359 291.886 332.783C292.406 333.199 292.666 333.767 292.666 334.487C292.666 334.935 292.57 335.359 292.378 335.759C292.186 336.159 291.822 336.615 291.286 337.127L288.718 339.599H293.026ZM299.149 336.239C299.629 336.423 299.997 336.687 300.253 337.031C300.509 337.375 300.637 337.787 300.637 338.267C300.637 338.771 300.501 339.211 300.229 339.587C299.957 339.955 299.569 340.239 299.065 340.439C298.561 340.639 297.969 340.739 297.289 340.739C296.617 340.739 296.029 340.639 295.525 340.439C295.029 340.239 294.645 339.955 294.373 339.587C294.101 339.211 293.965 338.771 293.965 338.267C293.965 337.787 294.089 337.375 294.337 337.031C294.593 336.687 294.961 336.423 295.441 336.239C295.057 336.055 294.765 335.811 294.565 335.507C294.365 335.203 294.265 334.843 294.265 334.427C294.265 333.963 294.389 333.559 294.637 333.215C294.893 332.871 295.249 332.607 295.705 332.423C296.161 332.239 296.689 332.147 297.289 332.147C297.897 332.147 298.429 332.239 298.885 332.423C299.349 332.607 299.705 332.871 299.953 333.215C300.209 333.559 300.337 333.963 300.337 334.427C300.337 334.835 300.233 335.195 300.025 335.507C299.825 335.811 299.533 336.055 299.149 336.239ZM297.289 333.119C296.721 333.119 296.273 333.243 295.945 333.491C295.617 333.731 295.453 334.059 295.453 334.475C295.453 334.891 295.613 335.219 295.933 335.459C296.261 335.699 296.713 335.819 297.289 335.819C297.873 335.819 298.329 335.699 298.657 335.459C298.993 335.219 299.161 334.891 299.161 334.475C299.161 334.059 298.989 333.731 298.645 333.491C298.309 333.243 297.857 333.119 297.289 333.119ZM297.289 339.767C297.953 339.767 298.477 339.631 298.861 339.359C299.245 339.079 299.437 338.703 299.437 338.231C299.437 337.767 299.245 337.403 298.861 337.139C298.477 336.867 297.953 336.731 297.289 336.731C296.625 336.731 296.105 336.867 295.729 337.139C295.353 337.403 295.165 337.767 295.165 338.231C295.165 338.703 295.353 339.079 295.729 339.359C296.105 339.631 296.625 339.767 297.289 339.767Z" fill="white" fill-opacity="0.75"/>
<path d="M345.297 339.599V340.643H339.261V339.827L342.681 336.527C343.097 336.127 343.377 335.783 343.521 335.495C343.665 335.199 343.737 334.903 343.737 334.607C343.737 334.167 343.581 333.827 343.269 333.587C342.965 333.339 342.525 333.215 341.949 333.215C341.021 333.215 340.305 333.519 339.801 334.127L338.985 333.419C339.313 333.019 339.741 332.707 340.269 332.483C340.805 332.259 341.401 332.147 342.057 332.147C342.937 332.147 343.637 332.359 344.157 332.783C344.677 333.199 344.937 333.767 344.937 334.487C344.937 334.935 344.841 335.359 344.649 335.759C344.457 336.159 344.093 336.615 343.557 337.127L340.989 339.599H345.297ZM349.008 332.147C350.136 332.147 351.004 332.511 351.612 333.239C352.228 333.967 352.536 334.999 352.536 336.335C352.536 337.271 352.368 338.071 352.032 338.735C351.704 339.391 351.24 339.891 350.64 340.235C350.048 340.571 349.356 340.739 348.564 340.739C348.156 340.739 347.772 340.699 347.412 340.619C347.052 340.531 346.74 340.407 346.476 340.247L346.932 339.311C347.34 339.575 347.88 339.707 348.552 339.707C349.424 339.707 350.104 339.439 350.592 338.903C351.088 338.359 351.336 337.571 351.336 336.539V336.239C351.096 336.599 350.764 336.875 350.34 337.067C349.916 337.251 349.44 337.343 348.912 337.343C348.36 337.343 347.864 337.239 347.424 337.031C346.992 336.823 346.652 336.527 346.404 336.143C346.164 335.751 346.044 335.303 346.044 334.799C346.044 334.271 346.172 333.807 346.428 333.407C346.692 333.007 347.048 332.699 347.496 332.483C347.944 332.259 348.448 332.147 349.008 332.147ZM349.116 336.371C349.492 336.371 349.828 336.299 350.124 336.155C350.42 336.011 350.648 335.815 350.808 335.567C350.976 335.319 351.06 335.043 351.06 334.739C351.06 334.443 350.98 334.175 350.82 333.935C350.668 333.687 350.44 333.491 350.136 333.347C349.84 333.195 349.48 333.119 349.056 333.119C348.504 333.119 348.056 333.267 347.712 333.563C347.376 333.859 347.208 334.255 347.208 334.751C347.208 335.247 347.38 335.643 347.724 335.939C348.068 336.227 348.532 336.371 349.116 336.371Z" fill="white" fill-opacity="0.75"/>
<path d="M137.105 339.599V340.643H131.069V339.827L134.489 336.527C134.905 336.127 135.185 335.783 135.329 335.495C135.473 335.199 135.545 334.903 135.545 334.607C135.545 334.167 135.389 333.827 135.077 333.587C134.773 333.339 134.333 333.215 133.757 333.215C132.829 333.215 132.113 333.519 131.609 334.127L130.793 333.419C131.121 333.019 131.549 332.707 132.077 332.483C132.613 332.259 133.209 332.147 133.865 332.147C134.745 332.147 135.445 332.359 135.965 332.783C136.485 333.199 136.745 333.767 136.745 334.487C136.745 334.935 136.649 335.359 136.457 335.759C136.265 336.159 135.901 336.615 135.365 337.127L132.797 339.599H137.105ZM140.492 335.591C141.692 335.591 142.572 335.819 143.132 336.275C143.7 336.723 143.984 337.339 143.984 338.123C143.984 338.619 143.864 339.067 143.624 339.467C143.392 339.859 143.036 340.171 142.556 340.403C142.084 340.627 141.5 340.739 140.804 340.739C140.212 340.739 139.64 340.651 139.088 340.475C138.536 340.291 138.08 340.039 137.72 339.719L138.272 338.771C138.56 339.043 138.928 339.263 139.376 339.431C139.824 339.591 140.296 339.671 140.792 339.671C141.424 339.671 141.912 339.539 142.256 339.275C142.608 339.003 142.784 338.635 142.784 338.171C142.784 337.667 142.592 337.287 142.208 337.031C141.824 336.767 141.168 336.635 140.24 336.635H138.332L138.776 332.243H143.516V333.287H139.784L139.556 335.591H140.492Z" fill="white" fill-opacity="0.75"/>
<path d="M239.266 237.271V245.671H238.078V238.315H236.182V237.271H239.266ZM244.32 240.799C245.144 240.879 245.772 241.135 246.204 241.567C246.636 241.991 246.852 242.535 246.852 243.199C246.852 243.679 246.732 244.115 246.492 244.507C246.252 244.891 245.892 245.199 245.412 245.431C244.94 245.655 244.36 245.767 243.672 245.767C243.072 245.767 242.496 245.679 241.944 245.503C241.392 245.319 240.94 245.067 240.588 244.747L241.14 243.799C241.428 244.071 241.796 244.291 242.244 244.459C242.692 244.619 243.168 244.699 243.672 244.699C244.296 244.699 244.78 244.567 245.124 244.303C245.476 244.039 245.652 243.675 245.652 243.211C245.652 242.747 245.48 242.387 245.136 242.131C244.792 241.875 244.272 241.747 243.576 241.747H242.904V240.907L245.016 238.315H240.972V237.271H246.516V238.087L244.32 240.799Z" fill="#34C759"/>
<path d="M32.8875 237.175C34.0155 237.175 34.8835 237.539 35.4915 238.267C36.1075 238.995 36.4155 240.027 36.4155 241.363C36.4155 242.299 36.2475 243.099 35.9115 243.763C35.5835 244.419 35.1195 244.919 34.5195 245.263C33.9275 245.599 33.2355 245.767 32.4435 245.767C32.0355 245.767 31.6515 245.727 31.2915 245.647C30.9315 245.559 30.6195 245.435 30.3555 245.275L30.8115 244.339C31.2195 244.603 31.7595 244.735 32.4315 244.735C33.3035 244.735 33.9835 244.467 34.4715 243.931C34.9675 243.387 35.2155 242.599 35.2155 241.567V241.267C34.9755 241.627 34.6435 241.903 34.2195 242.095C33.7955 242.279 33.3195 242.371 32.7915 242.371C32.2395 242.371 31.7435 242.267 31.3035 242.059C30.8715 241.851 30.5315 241.555 30.2835 241.171C30.0435 240.779 29.9235 240.331 29.9235 239.827C29.9235 239.299 30.0515 238.835 30.3075 238.435C30.5715 238.035 30.9275 237.727 31.3755 237.511C31.8235 237.287 32.3275 237.175 32.8875 237.175ZM32.9955 241.399C33.3715 241.399 33.7075 241.327 34.0035 241.183C34.2995 241.039 34.5275 240.843 34.6875 240.595C34.8555 240.347 34.9395 240.071 34.9395 239.767C34.9395 239.471 34.8595 239.203 34.6995 238.963C34.5475 238.715 34.3195 238.519 34.0155 238.375C33.7195 238.223 33.3595 238.147 32.9355 238.147C32.3835 238.147 31.9355 238.295 31.5915 238.591C31.2555 238.887 31.0875 239.283 31.0875 239.779C31.0875 240.275 31.2595 240.671 31.6035 240.967C31.9475 241.255 32.4115 241.399 32.9955 241.399Z" fill="white" fill-opacity="0.75"/>
<path d="M82.3605 237.271V245.671H81.1725V238.315H79.2765V237.271H82.3605ZM87.6299 245.767C86.9659 245.767 86.3739 245.599 85.8539 245.263C85.3419 244.919 84.9379 244.423 84.6419 243.775C84.3459 243.127 84.1979 242.359 84.1979 241.471C84.1979 240.583 84.3459 239.815 84.6419 239.167C84.9379 238.519 85.3419 238.027 85.8539 237.691C86.3739 237.347 86.9659 237.175 87.6299 237.175C88.2859 237.175 88.8699 237.347 89.3819 237.691C89.9019 238.027 90.3099 238.519 90.6059 239.167C90.9019 239.815 91.0499 240.583 91.0499 241.471C91.0499 242.359 90.9019 243.127 90.6059 243.775C90.3099 244.423 89.9019 244.919 89.3819 245.263C88.8699 245.599 88.2859 245.767 87.6299 245.767ZM87.6299 244.699C88.3019 244.699 88.8379 244.423 89.2379 243.871C89.6459 243.319 89.8499 242.519 89.8499 241.471C89.8499 240.423 89.6459 239.623 89.2379 239.071C88.8379 238.519 88.3019 238.243 87.6299 238.243C86.9499 238.243 86.4059 238.519 85.9979 239.071C85.5979 239.623 85.3979 240.423 85.3979 241.471C85.3979 242.519 85.5979 243.319 85.9979 243.871C86.4059 244.423 86.9499 244.699 87.6299 244.699Z" fill="#34C759"/>
<path d="M187.142 237.271V245.671H185.954V238.315H184.058V237.271H187.142ZM194.884 244.627V245.671H188.848V244.855L192.268 241.555C192.684 241.155 192.964 240.811 193.108 240.523C193.252 240.227 193.324 239.931 193.324 239.635C193.324 239.195 193.168 238.855 192.856 238.615C192.552 238.367 192.112 238.243 191.536 238.243C190.608 238.243 189.892 238.547 189.388 239.155L188.572 238.447C188.9 238.047 189.328 237.735 189.856 237.511C190.392 237.287 190.988 237.175 191.644 237.175C192.524 237.175 193.224 237.387 193.744 237.811C194.264 238.227 194.524 238.795 194.524 239.515C194.524 239.963 194.428 240.387 194.236 240.787C194.044 241.187 193.68 241.643 193.144 242.155L190.576 244.627H194.884Z" fill="white" fill-opacity="0.75"/>
<path d="M290.799 237.271V245.671H289.611V238.315H287.715V237.271H290.799ZM299.944 243.607H298.348V245.671H297.184V243.607H292.516V242.767L296.812 237.271H298.108L293.992 242.575H297.22V240.751H298.348V242.575H299.944V243.607Z" fill="#34C759"/>
<path d="M343.48 237.271V245.671H342.292V238.315H340.396V237.271H343.48ZM347.717 240.619C348.917 240.619 349.797 240.847 350.357 241.303C350.925 241.751 351.209 242.367 351.209 243.151C351.209 243.647 351.089 244.095 350.849 244.495C350.617 244.887 350.261 245.199 349.781 245.431C349.309 245.655 348.725 245.767 348.029 245.767C347.437 245.767 346.865 245.679 346.313 245.503C345.761 245.319 345.305 245.067 344.945 244.747L345.497 243.799C345.785 244.071 346.153 244.291 346.601 244.459C347.049 244.619 347.521 244.699 348.017 244.699C348.649 244.699 349.137 244.567 349.481 244.303C349.833 244.031 350.009 243.663 350.009 243.199C350.009 242.695 349.817 242.315 349.433 242.059C349.049 241.795 348.393 241.663 347.465 241.663H345.557L346.001 237.271H350.741V238.315H347.009L346.781 240.619H347.717Z" fill="white" fill-opacity="0.75"/>
<path d="M136.254 237.271V245.671H135.066V238.315H133.17V237.271H136.254ZM140.696 237.271V245.671H139.508V238.315H137.612V237.271H140.696Z" fill="white" fill-opacity="0.75"/>
<path d="M296.963 189.785V190.601L293.567 198.185H292.295L295.619 190.829H291.779V192.329H290.627V189.785H296.963Z" fill="#34C759"/>
<path d="M36.3253 197.141V198.185H30.2893V197.369L33.7093 194.069C34.1253 193.669 34.4053 193.325 34.5493 193.037C34.6933 192.741 34.7653 192.445 34.7653 192.149C34.7653 191.709 34.6093 191.369 34.2973 191.129C33.9933 190.881 33.5533 190.757 32.9773 190.757C32.0493 190.757 31.3333 191.061 30.8293 191.669L30.0133 190.961C30.3413 190.561 30.7693 190.249 31.2973 190.025C31.8333 189.801 32.4293 189.689 33.0853 189.689C33.9653 189.689 34.6653 189.901 35.1853 190.325C35.7053 190.741 35.9653 191.309 35.9653 192.029C35.9653 192.477 35.8693 192.901 35.6773 193.301C35.4853 193.701 35.1213 194.157 34.5853 194.669L32.0173 197.141H36.3253Z" fill="white" fill-opacity="0.75"/>
<path d="M85.7615 193.313C86.5855 193.393 87.2135 193.649 87.6455 194.081C88.0775 194.505 88.2935 195.049 88.2935 195.713C88.2935 196.193 88.1735 196.629 87.9335 197.021C87.6935 197.405 87.3335 197.713 86.8535 197.945C86.3815 198.169 85.8015 198.281 85.1135 198.281C84.5135 198.281 83.9375 198.193 83.3855 198.017C82.8335 197.833 82.3815 197.581 82.0295 197.261L82.5815 196.313C82.8695 196.585 83.2375 196.805 83.6855 196.973C84.1335 197.133 84.6095 197.213 85.1135 197.213C85.7375 197.213 86.2215 197.081 86.5655 196.817C86.9175 196.553 87.0935 196.189 87.0935 195.725C87.0935 195.261 86.9215 194.901 86.5775 194.645C86.2335 194.389 85.7135 194.261 85.0175 194.261H84.3455V193.421L86.4575 190.829H82.4135V189.785H87.9575V190.601L85.7615 193.313Z" fill="white" fill-opacity="0.75"/>
<path d="M189.159 193.133C190.359 193.133 191.239 193.361 191.799 193.817C192.367 194.265 192.651 194.881 192.651 195.665C192.651 196.161 192.531 196.609 192.291 197.009C192.059 197.401 191.703 197.713 191.223 197.945C190.751 198.169 190.167 198.281 189.471 198.281C188.879 198.281 188.307 198.193 187.755 198.017C187.203 197.833 186.747 197.581 186.387 197.261L186.939 196.313C187.227 196.585 187.595 196.805 188.043 196.973C188.491 197.133 188.963 197.213 189.459 197.213C190.091 197.213 190.579 197.081 190.923 196.817C191.275 196.545 191.451 196.177 191.451 195.713C191.451 195.209 191.259 194.829 190.875 194.573C190.491 194.309 189.835 194.177 188.907 194.177H186.999L187.443 189.785H192.183V190.829H188.451L188.223 193.133H189.159Z" fill="white" fill-opacity="0.75"/>
<path d="M242.238 193.085C242.79 193.085 243.282 193.189 243.714 193.397C244.154 193.605 244.498 193.905 244.746 194.297C244.994 194.681 245.118 195.125 245.118 195.629C245.118 196.157 244.986 196.621 244.722 197.021C244.466 197.421 244.11 197.733 243.654 197.957C243.206 198.173 242.702 198.281 242.142 198.281C241.014 198.281 240.142 197.917 239.526 197.189C238.918 196.461 238.614 195.429 238.614 194.093C238.614 193.157 238.778 192.361 239.106 191.705C239.442 191.041 239.906 190.541 240.498 190.205C241.098 189.861 241.794 189.689 242.586 189.689C242.994 189.689 243.378 189.733 243.738 189.821C244.098 189.901 244.41 190.021 244.674 190.181L244.218 191.117C243.818 190.853 243.282 190.721 242.61 190.721C241.738 190.721 241.054 190.993 240.558 191.537C240.062 192.073 239.814 192.857 239.814 193.889C239.814 194.017 239.818 194.117 239.826 194.189C240.066 193.829 240.394 193.557 240.81 193.373C241.234 193.181 241.71 193.085 242.238 193.085ZM242.094 197.309C242.646 197.309 243.094 197.161 243.438 196.865C243.782 196.569 243.954 196.173 243.954 195.677C243.954 195.181 243.778 194.789 243.426 194.501C243.082 194.205 242.618 194.057 242.034 194.057C241.658 194.057 241.322 194.129 241.026 194.273C240.738 194.417 240.51 194.613 240.342 194.861C240.182 195.109 240.102 195.385 240.102 195.689C240.102 195.985 240.178 196.257 240.33 196.505C240.49 196.745 240.718 196.941 241.014 197.093C241.318 197.237 241.678 197.309 242.094 197.309Z" fill="white" fill-opacity="0.75"/>
<path d="M347.816 193.781C348.296 193.965 348.664 194.229 348.92 194.573C349.176 194.917 349.304 195.329 349.304 195.809C349.304 196.313 349.168 196.753 348.896 197.129C348.624 197.497 348.236 197.781 347.732 197.981C347.228 198.181 346.636 198.281 345.956 198.281C345.284 198.281 344.696 198.181 344.192 197.981C343.696 197.781 343.312 197.497 343.04 197.129C342.768 196.753 342.632 196.313 342.632 195.809C342.632 195.329 342.756 194.917 343.004 194.573C343.26 194.229 343.628 193.965 344.108 193.781C343.724 193.597 343.432 193.353 343.232 193.049C343.032 192.745 342.932 192.385 342.932 191.969C342.932 191.505 343.056 191.101 343.304 190.757C343.56 190.413 343.916 190.149 344.372 189.965C344.828 189.781 345.356 189.689 345.956 189.689C346.564 189.689 347.096 189.781 347.552 189.965C348.016 190.149 348.372 190.413 348.62 190.757C348.876 191.101 349.004 191.505 349.004 191.969C349.004 192.377 348.9 192.737 348.692 193.049C348.492 193.353 348.2 193.597 347.816 193.781ZM345.956 190.661C345.388 190.661 344.94 190.785 344.612 191.033C344.284 191.273 344.12 191.601 344.12 192.017C344.12 192.433 344.28 192.761 344.6 193.001C344.928 193.241 345.38 193.361 345.956 193.361C346.54 193.361 346.996 193.241 347.324 193.001C347.66 192.761 347.828 192.433 347.828 192.017C347.828 191.601 347.656 191.273 347.312 191.033C346.976 190.785 346.524 190.661 345.956 190.661ZM345.956 197.309C346.62 197.309 347.144 197.173 347.528 196.901C347.912 196.621 348.104 196.245 348.104 195.773C348.104 195.309 347.912 194.945 347.528 194.681C347.144 194.409 346.62 194.273 345.956 194.273C345.292 194.273 344.772 194.409 344.396 194.681C344.02 194.945 343.832 195.309 343.832 195.773C343.832 196.245 344.02 196.621 344.396 196.901C344.772 197.173 345.292 197.309 345.956 197.309Z" fill="white" fill-opacity="0.75"/>
<path d="M141.386 196.121H139.79V198.185H138.626V196.121H133.958V195.281L138.254 189.785H139.55L135.434 195.089H138.662V193.265H139.79V195.089H141.386V196.121Z" fill="white" fill-opacity="0.75"/>
<path d="M0 72.5H379" stroke="#737373"/>
<path d="M141.96 42.216C141.408 42.216 140.898 42.162 140.43 42.054C139.962 41.958 139.572 41.85 139.26 41.73C138.96 41.61 138.81 41.544 138.81 41.532L138.666 41.28C138.678 41.196 138.702 41.016 138.738 40.74C138.786 40.452 138.834 40.074 138.882 39.606C138.93 39.126 138.954 38.664 138.954 38.22L140.43 38.112C140.43 38.784 140.49 39.3 140.61 39.66C140.73 40.02 140.928 40.278 141.204 40.434C141.492 40.578 141.9 40.65 142.428 40.65C143.004 40.65 143.466 40.524 143.814 40.272C144.162 40.02 144.336 39.672 144.336 39.228C144.336 38.832 144.15 38.496 143.778 38.22C143.418 37.944 142.854 37.62 142.086 37.248C142.038 37.224 141.9 37.158 141.672 37.05C140.772 36.618 140.07 36.162 139.566 35.682C139.062 35.202 138.81 34.578 138.81 33.81C138.81 33.126 139.014 32.514 139.422 31.974C139.83 31.422 140.394 30.996 141.114 30.696C141.846 30.384 142.674 30.228 143.598 30.228C144.126 30.228 144.612 30.264 145.056 30.336C145.512 30.408 145.872 30.486 146.136 30.57C146.412 30.642 146.586 30.69 146.658 30.714L146.784 30.948C146.772 31.02 146.736 31.206 146.676 31.506C146.616 31.794 146.556 32.166 146.496 32.622C146.436 33.078 146.388 33.546 146.352 34.026L145.02 34.134L144.858 34.026C144.858 33.99 144.864 33.918 144.876 33.81C144.888 33.69 144.894 33.546 144.894 33.378C144.894 32.838 144.756 32.454 144.48 32.226C144.216 31.998 143.766 31.884 143.13 31.884C142.614 31.884 142.188 32.01 141.852 32.262C141.528 32.502 141.366 32.814 141.366 33.198C141.366 33.486 141.468 33.75 141.672 33.99C141.888 34.218 142.14 34.416 142.428 34.584C142.728 34.752 143.16 34.974 143.724 35.25C144.396 35.574 144.948 35.868 145.38 36.132C145.824 36.396 146.196 36.732 146.496 37.14C146.796 37.548 146.946 38.034 146.946 38.598C146.946 39.318 146.736 39.954 146.316 40.506C145.908 41.046 145.326 41.466 144.57 41.766C143.826 42.066 142.956 42.216 141.96 42.216ZM151.975 42.216C150.715 42.216 149.719 41.85 148.987 41.118C148.267 40.374 147.907 39.36 147.907 38.076C147.907 37.212 148.093 36.432 148.465 35.736C148.837 35.04 149.347 34.494 149.995 34.098C150.643 33.69 151.363 33.486 152.155 33.486C154.171 33.486 155.179 34.506 155.179 36.546C155.179 36.906 155.137 37.242 155.053 37.554L154.837 37.77H150.175C150.187 38.646 150.391 39.318 150.787 39.786C151.195 40.242 151.759 40.47 152.479 40.47C153.103 40.47 153.817 40.29 154.621 39.93L154.747 40.002L155.035 40.884C154.591 41.22 154.075 41.526 153.487 41.802C152.911 42.078 152.407 42.216 151.975 42.216ZM152.641 36.636C152.785 36.624 152.875 36.594 152.911 36.546C152.959 36.498 152.983 36.39 152.983 36.222C152.983 35.334 152.605 34.89 151.849 34.89C151.381 34.89 150.997 35.052 150.697 35.376C150.409 35.7 150.235 36.168 150.175 36.78L152.641 36.636ZM159.462 42.216C158.61 42.216 157.986 42.042 157.59 41.694C157.194 41.334 156.996 40.77 156.996 40.002V35.988C156.996 35.604 156.93 35.352 156.798 35.232C156.666 35.1 156.408 35.028 156.024 35.016L155.844 34.89L155.97 34.008C156.426 33.792 156.876 33.546 157.32 33.27C157.764 32.982 158.13 32.73 158.418 32.514C158.718 32.298 158.904 32.16 158.976 32.1L159.48 32.352C159.468 32.424 159.438 32.598 159.39 32.874C159.354 33.15 159.318 33.492 159.282 33.9L161.406 33.846L161.478 33.936L161.298 35.142L159.174 35.088C159.102 36.132 159.066 37.44 159.066 39.012C159.066 39.528 159.156 39.9 159.336 40.128C159.516 40.356 159.81 40.47 160.218 40.47C160.434 40.47 160.65 40.434 160.866 40.362C161.094 40.29 161.238 40.242 161.298 40.218L161.532 40.794C161.46 40.866 161.286 41.016 161.01 41.244C160.746 41.472 160.458 41.694 160.146 41.91C159.846 42.114 159.618 42.216 159.462 42.216ZM166.266 42.216C165.006 42.216 164.01 41.85 163.278 41.118C162.558 40.374 162.198 39.36 162.198 38.076C162.198 37.212 162.384 36.432 162.756 35.736C163.128 35.04 163.638 34.494 164.286 34.098C164.934 33.69 165.654 33.486 166.446 33.486C168.462 33.486 169.47 34.506 169.47 36.546C169.47 36.906 169.428 37.242 169.344 37.554L169.128 37.77H164.466C164.478 38.646 164.682 39.318 165.078 39.786C165.486 40.242 166.05 40.47 166.77 40.47C167.394 40.47 168.108 40.29 168.912 39.93L169.038 40.002L169.326 40.884C168.882 41.22 168.366 41.526 167.778 41.802C167.202 42.078 166.698 42.216 166.266 42.216ZM166.932 36.636C167.076 36.624 167.166 36.594 167.202 36.546C167.25 36.498 167.274 36.39 167.274 36.222C167.274 35.334 166.896 34.89 166.14 34.89C165.672 34.89 165.288 35.052 164.988 35.376C164.7 35.7 164.526 36.168 164.466 36.78L166.932 36.636ZM175.787 41.028C176.075 40.968 176.279 40.86 176.399 40.704C176.531 40.548 176.603 40.32 176.615 40.02L176.669 36.906C176.669 36.378 176.573 35.988 176.381 35.736C176.189 35.472 175.895 35.34 175.499 35.34C175.043 35.34 174.515 35.568 173.915 36.024C173.795 38.184 173.735 39.534 173.735 40.074C173.735 40.386 173.771 40.602 173.843 40.722C173.927 40.83 174.071 40.884 174.275 40.884L174.761 40.866L174.797 40.938L174.617 42.054C174.485 42.042 174.233 42.03 173.861 42.018C173.501 42.006 173.123 42 172.727 42C172.235 42 171.785 42.006 171.377 42.018C170.981 42.03 170.717 42.042 170.585 42.054L170.747 40.956C171.095 40.932 171.335 40.848 171.467 40.704C171.611 40.56 171.683 40.32 171.683 39.984V36.168C171.683 35.748 171.617 35.466 171.485 35.322C171.365 35.166 171.137 35.088 170.801 35.088H170.567L170.495 34.998L170.585 34.062C171.257 33.966 171.929 33.852 172.601 33.72C173.273 33.588 173.705 33.504 173.897 33.468L174.041 33.648C174.017 33.72 173.981 33.882 173.933 34.134C173.885 34.386 173.855 34.638 173.843 34.89L173.897 34.944C174.317 34.608 174.761 34.284 175.229 33.972C175.709 33.648 176.051 33.486 176.255 33.486C176.927 33.486 177.473 33.612 177.893 33.864C178.325 34.116 178.625 34.488 178.793 34.98C179.129 34.68 179.555 34.356 180.071 34.008C180.599 33.66 180.971 33.486 181.187 33.486C182.039 33.486 182.705 33.69 183.185 34.098C183.665 34.506 183.905 35.076 183.905 35.808C183.905 36.096 183.851 36.726 183.743 37.698C183.623 38.922 183.563 39.708 183.563 40.056C183.563 40.368 183.605 40.59 183.689 40.722C183.785 40.854 183.935 40.92 184.139 40.92C184.247 40.92 184.355 40.914 184.463 40.902C184.583 40.89 184.661 40.884 184.697 40.884L184.733 40.956L184.553 42.054C184.409 42.042 184.145 42.03 183.761 42.018C183.377 42.006 182.987 42 182.591 42C182.303 42 181.937 42.012 181.493 42.036C181.061 42.06 180.779 42.078 180.647 42.09L180.773 40.974C181.049 40.938 181.241 40.848 181.349 40.704C181.469 40.56 181.535 40.332 181.547 40.02L181.601 36.906C181.613 35.862 181.223 35.34 180.431 35.34C179.975 35.34 179.459 35.562 178.883 36.006L178.649 40.056C178.649 40.368 178.691 40.59 178.775 40.722C178.871 40.854 179.015 40.92 179.207 40.92C179.315 40.92 179.417 40.914 179.513 40.902C179.609 40.89 179.675 40.884 179.711 40.884L179.747 40.956L179.567 42.054C179.435 42.042 179.183 42.03 178.811 42.018C178.439 42.006 178.061 42 177.677 42C177.389 42 177.017 42.018 176.561 42.054C176.105 42.102 175.805 42.132 175.661 42.144L175.787 41.028ZM189.357 42.18C188.937 42.18 188.517 42.156 188.097 42.108C187.677 42.072 187.329 42.036 187.053 42C186.777 41.952 186.603 41.922 186.531 41.91L186.351 41.712V31.236C186.351 30.852 186.297 30.588 186.189 30.444C186.081 30.288 185.883 30.21 185.595 30.21C185.499 30.21 185.415 30.216 185.343 30.228C185.271 30.24 185.217 30.246 185.181 30.246L185.109 30.156L185.217 29.22C185.901 29.124 186.621 29.016 187.377 28.896C188.133 28.764 188.625 28.68 188.853 28.644L188.979 28.986C188.763 29.238 188.607 31.14 188.511 34.692C189.615 33.912 190.269 33.522 190.473 33.522C191.517 33.522 192.345 33.882 192.957 34.602C193.581 35.31 193.893 36.276 193.893 37.5C193.893 38.4 193.695 39.204 193.299 39.912C192.915 40.62 192.381 41.178 191.697 41.586C191.013 41.982 190.233 42.18 189.357 42.18ZM189.771 40.722C190.347 40.722 190.797 40.5 191.121 40.056C191.445 39.612 191.607 38.988 191.607 38.184C191.607 37.284 191.439 36.564 191.103 36.024C190.779 35.484 190.353 35.214 189.825 35.214C189.621 35.214 189.393 35.274 189.141 35.394C188.889 35.514 188.667 35.658 188.475 35.826L188.421 40.434C188.553 40.506 188.751 40.572 189.015 40.632C189.279 40.692 189.531 40.722 189.771 40.722ZM195.147 40.974C195.507 40.95 195.747 40.854 195.867 40.686C195.999 40.518 196.065 40.2 196.065 39.732V36.15C196.065 35.742 196.011 35.466 195.903 35.322C195.795 35.166 195.591 35.088 195.291 35.088L194.949 35.106L194.859 34.98L194.967 34.08C195.603 33.972 196.251 33.852 196.911 33.72C197.583 33.588 198.015 33.504 198.207 33.468L198.369 33.63C198.345 33.738 198.309 33.966 198.261 34.314C198.225 34.662 198.201 34.998 198.189 35.322L198.297 35.394C198.669 34.83 199.077 34.392 199.521 34.08C199.977 33.768 200.409 33.612 200.817 33.612C200.985 33.612 201.123 33.618 201.231 33.63C201.339 33.642 201.411 33.654 201.447 33.666L201.519 33.81C201.483 34.014 201.423 34.458 201.339 35.142C201.255 35.814 201.195 36.456 201.159 37.068L200.007 37.14C200.007 36.564 199.971 36.186 199.899 36.006C199.839 35.814 199.707 35.718 199.503 35.718C199.311 35.718 199.107 35.79 198.891 35.934C198.675 36.078 198.471 36.276 198.279 36.528C198.267 36.864 198.237 37.416 198.189 38.184C198.153 38.94 198.129 39.546 198.117 40.002C198.117 40.314 198.165 40.53 198.261 40.65C198.369 40.77 198.555 40.83 198.819 40.83C198.999 40.83 199.179 40.824 199.359 40.812C199.539 40.8 199.659 40.788 199.719 40.776L199.773 40.884L199.575 42.072C199.407 42.06 199.095 42.042 198.639 42.018C198.195 42.006 197.733 42 197.253 42C196.797 42 196.341 42.006 195.885 42.018C195.429 42.042 195.135 42.06 195.003 42.072L195.147 40.974ZM205.954 42.216C205.198 42.216 204.532 42.048 203.956 41.712C203.38 41.364 202.936 40.878 202.624 40.254C202.312 39.63 202.156 38.91 202.156 38.094C202.156 37.194 202.336 36.396 202.696 35.7C203.068 35.004 203.578 34.464 204.226 34.08C204.886 33.684 205.642 33.486 206.494 33.486C207.658 33.486 208.576 33.858 209.248 34.602C209.932 35.334 210.274 36.33 210.274 37.59C210.274 38.49 210.094 39.294 209.734 40.002C209.374 40.698 208.864 41.244 208.204 41.64C207.556 42.024 206.806 42.216 205.954 42.216ZM206.314 40.866C206.83 40.866 207.22 40.662 207.484 40.254C207.76 39.834 207.898 39.222 207.898 38.418C207.898 37.29 207.742 36.438 207.43 35.862C207.118 35.286 206.668 34.998 206.08 34.998C205.564 34.998 205.168 35.208 204.892 35.628C204.628 36.036 204.496 36.642 204.496 37.446C204.496 38.574 204.652 39.426 204.964 40.002C205.276 40.578 205.726 40.866 206.314 40.866ZM221.892 42.216C220.824 42.216 220.224 41.784 220.092 40.92L219.984 40.884C218.82 41.724 218.118 42.144 217.878 42.144C216.834 42.144 216 41.79 215.376 41.082C214.764 40.374 214.458 39.414 214.458 38.202C214.458 37.314 214.65 36.516 215.034 35.808C215.43 35.088 215.97 34.53 216.654 34.134C217.35 33.726 218.13 33.522 218.994 33.522C219.282 33.522 219.594 33.54 219.93 33.576V31.254C219.93 30.882 219.87 30.624 219.75 30.48C219.642 30.324 219.45 30.246 219.174 30.246C219.078 30.246 218.988 30.252 218.904 30.264C218.82 30.276 218.766 30.288 218.742 30.3L218.85 29.238C219.558 29.154 220.272 29.046 220.992 28.914C221.712 28.782 222.18 28.692 222.396 28.644L222.558 28.95C222.402 29.178 222.27 30.348 222.162 32.46C222.054 34.572 222 36.966 222 39.642C222 39.87 222.048 40.05 222.144 40.182C222.252 40.314 222.396 40.38 222.576 40.38C222.708 40.38 222.834 40.356 222.954 40.308C223.074 40.26 223.17 40.212 223.242 40.164C223.326 40.116 223.38 40.086 223.404 40.074L223.692 40.452C223.656 40.524 223.554 40.68 223.386 40.92C223.218 41.16 222.996 41.412 222.72 41.676C222.456 41.94 222.18 42.12 221.892 42.216ZM218.544 40.488C218.736 40.488 218.934 40.446 219.138 40.362C219.354 40.266 219.528 40.17 219.66 40.074C219.804 39.978 219.894 39.912 219.93 39.876V35.322C219.906 35.31 219.834 35.28 219.714 35.232C219.594 35.184 219.438 35.136 219.246 35.088C219.054 35.04 218.838 35.016 218.598 35.016C218.01 35.016 217.554 35.238 217.23 35.682C216.906 36.114 216.744 36.732 216.744 37.536C216.744 38.424 216.906 39.138 217.23 39.678C217.566 40.218 218.004 40.488 218.544 40.488ZM228.194 42.216C226.934 42.216 225.938 41.85 225.206 41.118C224.486 40.374 224.126 39.36 224.126 38.076C224.126 37.212 224.312 36.432 224.684 35.736C225.056 35.04 225.566 34.494 226.214 34.098C226.862 33.69 227.582 33.486 228.374 33.486C230.39 33.486 231.398 34.506 231.398 36.546C231.398 36.906 231.356 37.242 231.272 37.554L231.056 37.77H226.394C226.406 38.646 226.61 39.318 227.006 39.786C227.414 40.242 227.978 40.47 228.698 40.47C229.322 40.47 230.036 40.29 230.84 39.93L230.966 40.002L231.254 40.884C230.81 41.22 230.294 41.526 229.706 41.802C229.13 42.078 228.626 42.216 228.194 42.216ZM228.86 36.636C229.004 36.624 229.094 36.594 229.13 36.546C229.178 36.498 229.202 36.39 229.202 36.222C229.202 35.334 228.824 34.89 228.068 34.89C227.6 34.89 227.216 35.052 226.916 35.376C226.628 35.7 226.454 36.168 226.394 36.78L228.86 36.636ZM236.74 40.092C237.7 38.988 238.384 38.106 238.792 37.446C239.212 36.786 239.422 36.24 239.422 35.808C239.422 35.448 239.32 35.172 239.116 34.98C238.924 34.788 238.648 34.692 238.288 34.692C237.928 34.692 237.568 34.818 237.208 35.07C236.86 35.31 236.542 35.646 236.254 36.078H236.02L235.714 34.8C236.17 34.188 236.704 33.708 237.316 33.36C237.928 33 238.552 32.82 239.188 32.82C240.028 32.82 240.7 33.036 241.204 33.468C241.72 33.888 241.978 34.446 241.978 35.142C241.978 35.526 241.876 35.928 241.672 36.348C241.48 36.756 241.144 37.26 240.664 37.86C240.184 38.448 239.494 39.234 238.594 40.218L238.666 40.362H240.448C241.012 40.362 241.408 40.254 241.636 40.038C241.876 39.81 242.062 39.372 242.194 38.724L243.526 38.598C243.478 38.814 243.394 39.276 243.274 39.984C243.154 40.692 243.07 41.346 243.022 41.946L242.77 42.162C242.29 42.15 241.33 42.12 239.89 42.072C238.45 42.024 237.376 42 236.668 42L235.516 42.162L235.39 41.586L236.74 40.092ZM248.105 42.216C246.929 42.216 245.999 41.814 245.315 41.01C244.631 40.206 244.289 39.114 244.289 37.734C244.289 36.762 244.469 35.904 244.829 35.16C245.189 34.416 245.693 33.84 246.341 33.432C246.989 33.024 247.733 32.82 248.573 32.82C249.749 32.82 250.679 33.222 251.363 34.026C252.047 34.818 252.389 35.898 252.389 37.266C252.389 38.25 252.209 39.114 251.849 39.858C251.501 40.602 251.003 41.184 250.355 41.604C249.707 42.012 248.957 42.216 248.105 42.216ZM248.411 39.912C249.203 39.912 249.821 39.714 250.265 39.318C250.721 38.922 250.949 38.376 250.949 37.68C250.949 36.936 250.703 36.342 250.211 35.898C249.719 35.442 249.053 35.214 248.213 35.214C247.433 35.214 246.821 35.418 246.377 35.826C245.933 36.222 245.711 36.774 245.711 37.482C245.711 38.226 245.951 38.82 246.431 39.264C246.923 39.696 247.583 39.912 248.411 39.912ZM254.493 40.092C255.453 38.988 256.137 38.106 256.545 37.446C256.965 36.786 257.175 36.24 257.175 35.808C257.175 35.448 257.073 35.172 256.869 34.98C256.677 34.788 256.401 34.692 256.041 34.692C255.681 34.692 255.321 34.818 254.961 35.07C254.613 35.31 254.295 35.646 254.007 36.078H253.773L253.467 34.8C253.923 34.188 254.457 33.708 255.069 33.36C255.681 33 256.305 32.82 256.941 32.82C257.781 32.82 258.453 33.036 258.957 33.468C259.473 33.888 259.731 34.446 259.731 35.142C259.731 35.526 259.629 35.928 259.425 36.348C259.233 36.756 258.897 37.26 258.417 37.86C257.937 38.448 257.247 39.234 256.347 40.218L256.419 40.362H258.201C258.765 40.362 259.161 40.254 259.389 40.038C259.629 39.81 259.815 39.372 259.947 38.724L261.279 38.598C261.231 38.814 261.147 39.276 261.027 39.984C260.907 40.692 260.823 41.346 260.775 41.946L260.523 42.162C260.043 42.15 259.083 42.12 257.643 42.072C256.203 42.024 255.129 42 254.421 42L253.269 42.162L253.143 41.586L254.493 40.092ZM265.859 42.216C264.683 42.216 263.753 41.814 263.069 41.01C262.385 40.206 262.043 39.114 262.043 37.734C262.043 36.762 262.223 35.904 262.583 35.16C262.943 34.416 263.447 33.84 264.095 33.432C264.743 33.024 265.487 32.82 266.327 32.82C267.503 32.82 268.433 33.222 269.117 34.026C269.801 34.818 270.143 35.898 270.143 37.266C270.143 38.25 269.963 39.114 269.603 39.858C269.255 40.602 268.757 41.184 268.109 41.604C267.461 42.012 266.711 42.216 265.859 42.216ZM266.165 39.912C266.957 39.912 267.575 39.714 268.019 39.318C268.475 38.922 268.703 38.376 268.703 37.68C268.703 36.936 268.457 36.342 267.965 35.898C267.473 35.442 266.807 35.214 265.967 35.214C265.187 35.214 264.575 35.418 264.131 35.826C263.687 36.222 263.465 36.774 263.465 37.482C263.465 38.226 263.705 38.82 264.185 39.264C264.677 39.696 265.337 39.912 266.165 39.912Z" fill="white"/>
<path d="M37.4375 31.8376V30.66C37.4375 30.5579 37.3172 30.5015 37.236 30.564L30.1922 35.9281C30.1324 35.9735 30.0839 36.0316 30.0506 36.098C30.0173 36.1644 30 36.2374 30 36.3113C30 36.3852 30.0173 36.4581 30.0506 36.5245C30.0839 36.5909 30.1324 36.6491 30.1922 36.6944L37.236 42.0586C37.3188 42.121 37.4375 42.0647 37.4375 41.9626V40.7849C37.4375 40.7103 37.4016 40.6387 37.3422 40.593L31.7172 36.312L37.3422 32.0296C37.4016 31.9839 37.4375 31.9123 37.4375 31.8376Z" fill="white"/>
<path d="M351.562 31.8376V30.66C351.562 30.5579 351.683 30.5015 351.764 30.564L358.808 35.9281C358.868 35.9735 358.916 36.0316 358.949 36.098C358.983 36.1644 359 36.2374 359 36.3113C359 36.3852 358.983 36.4581 358.949 36.5245C358.916 36.5909 358.868 36.6491 358.808 36.6944L351.764 42.0586C351.681 42.121 351.562 42.0647 351.562 41.9626V40.7849C351.562 40.7103 351.598 40.6387 351.658 40.593L357.283 36.312L351.658 32.0296C351.598 31.9839 351.562 31.9123 351.562 31.8376Z" fill="white"/>
</svg>
