<svg width="128" height="128" viewBox="0 0 128 128" fill="none" xmlns="http://www.w3.org/2000/svg">
<g filter="url(#filter0_d_122_1)">
<circle cx="64" cy="60" r="59.5" fill="#252525" stroke="#34C759"/>
<path d="M54.4 46.9048V56.4262H61.6V46.9048H66.4V56.4262H73.6V46.9048H78.4V56.4262L80.8 56.4286C82.6365 56.4285 84.4036 57.1246 85.7398 58.3745C87.076 59.6244 87.8803 61.3336 87.988 63.1524L88 63.5714V65.9524C88 68.3667 87.0952 70.5714 85.6024 72.25L85.6 82.619C85.6 83.2505 85.3471 83.8561 84.8971 84.3026C84.447 84.7492 83.8365 85 83.2 85H44.8C44.1635 85 43.553 84.7492 43.1029 84.3026C42.6529 83.8561 42.4 83.2505 42.4 82.619V72.2381C41.1104 70.7804 40.297 68.9689 40.0672 67.0429L40.0144 66.4405L40 65.9524V63.5714C39.9999 61.7495 40.7016 59.9964 41.9615 58.6708C43.2214 57.3452 44.9443 56.5474 46.7776 56.4405L47.2 56.4286L49.6 56.4262V46.9048H54.4ZM56.8048 72.2405L56.6752 72.3905C55.102 74.0945 52.9572 75.1719 50.6416 75.4214L50.0896 75.4643L49.6 75.4762C48.772 75.4762 47.968 75.3714 47.2 75.1762V80.2381H80.8V75.1762C79.2289 75.5769 77.5811 75.5768 76.01 75.1759C74.439 74.775 72.9957 73.9863 71.8144 72.8833L71.4544 72.5262L71.2 72.2476L70.9432 72.5286C69.3869 74.1495 67.3036 75.1732 65.0608 75.419L64.48 75.4667L64 75.4762C61.4883 75.4798 59.0764 74.5012 57.2872 72.7524L56.9272 72.3786L56.8048 72.2405V72.2405ZM80.8 61.1905H47.2C46.6122 61.1906 46.0448 61.4047 45.6055 61.7922C45.1662 62.1797 44.8856 62.7137 44.8168 63.2929L44.8 63.5714V65.8833L44.8072 66.2333C44.8794 67.4457 45.4159 68.5849 46.3068 69.4179C47.1977 70.2508 48.3758 70.7146 49.6 70.7143C50.7495 70.7163 51.8615 70.3088 52.7336 69.5659C53.6058 68.823 54.1801 67.7942 54.352 66.6667L54.388 66.3024L54.4 65.8833C54.4864 62.9119 58.7848 62.8048 59.1736 65.5643L59.1976 65.8833L59.2072 66.2333C59.2743 67.4427 59.8035 68.5813 60.6869 69.4173C61.5704 70.2533 62.7418 70.7239 63.9627 70.7333C65.1835 70.7427 66.3621 70.2902 67.2586 69.4679C68.155 68.6456 68.7019 67.5154 68.788 66.3071L68.8168 65.6357C69.1144 62.8833 73.2856 62.8833 73.5832 65.6357L73.612 66.3071C73.6978 67.5088 74.2395 68.6336 75.128 69.4548C76.0165 70.2759 77.1857 70.7325 78.4 70.7325C79.6143 70.7325 80.7835 70.2759 81.672 69.4548C82.5605 68.6336 83.1022 67.5088 83.188 66.3071L83.2 65.9524V63.5714C83.1999 62.9883 82.9841 62.4254 82.5935 61.9896C82.2029 61.5538 81.6646 61.2754 81.0808 61.2071L80.8 61.1905ZM52 35C55.168 37.0738 55.9912 39.9714 55.4776 41.8762C55.2306 42.7912 54.6274 43.5714 53.8006 44.0451C52.9738 44.5189 51.9911 44.6474 51.0688 44.4024C50.1465 44.1574 49.3601 43.5589 48.8825 42.7387C48.405 41.9184 48.2754 40.9436 48.5224 40.0286C49.24 37.3857 52 38.5714 52 35ZM64 35C67.168 37.0738 67.9912 39.9714 67.4776 41.8762C67.2306 42.7912 66.6274 43.5714 65.8006 44.0451C64.9738 44.5189 63.9911 44.6474 63.0688 44.4024C62.1465 44.1574 61.3601 43.5589 60.8825 42.7387C60.405 41.9184 60.2754 40.9436 60.5224 40.0286C61.24 37.3857 64 38.5714 64 35ZM76 35C79.168 37.0738 79.9912 39.9714 79.4776 41.8762C79.2306 42.7912 78.6274 43.5714 77.8006 44.0451C76.9738 44.5189 75.9911 44.6474 75.0688 44.4024C74.1465 44.1574 73.3601 43.5589 72.8825 42.7387C72.405 41.9184 72.2754 40.9436 72.5224 40.0286C73.24 37.3857 76 38.5714 76 35Z" fill="#34C759" fill-opacity="0.75"/>
</g>
<defs>
<filter id="filter0_d_122_1" x="0" y="0" width="128" height="128" filterUnits="userSpaceOnUse" color-interpolation-filters="sRGB">
<feFlood flood-opacity="0" result="BackgroundImageFix"/>
<feColorMatrix in="SourceAlpha" type="matrix" values="0 0 0 0 0 0 0 0 0 0 0 0 0 0 0 0 0 0 127 0" result="hardAlpha"/>
<feOffset dy="4"/>
<feGaussianBlur stdDeviation="2"/>
<feComposite in2="hardAlpha" operator="out"/>
<feColorMatrix type="matrix" values="0 0 0 0 0 0 0 0 0 0 0 0 0 0 0 0 0 0 0.25 0"/>
<feBlend mode="normal" in2="BackgroundImageFix" result="effect1_dropShadow_122_1"/>
<feBlend mode="normal" in="SourceGraphic" in2="effect1_dropShadow_122_1" result="shape"/>
</filter>
</defs>
</svg>
