<svg width="93" height="15" viewBox="0 0 93 15" fill="none" xmlns="http://www.w3.org/2000/svg">
<path d="M31.6528 9.68V11H26.3628V9.95L29.0628 7.4C29.3495 7.12667 29.5428 6.89333 29.6428 6.7C29.7428 6.5 29.7928 6.30333 29.7928 6.11C29.7928 5.83 29.6962 5.61667 29.5028 5.47C29.3162 5.31667 29.0395 5.24 28.6728 5.24C28.3662 5.24 28.0895 5.3 27.8428 5.42C27.5962 5.53333 27.3895 5.70667 27.2228 5.94L26.0428 5.18C26.3162 4.77333 26.6928 4.45667 27.1728 4.23C27.6528 3.99667 28.2028 3.88 28.8228 3.88C29.3428 3.88 29.7962 3.96667 30.1828 4.14C30.5762 4.30667 30.8795 4.54667 31.0928 4.86C31.3128 5.16667 31.4228 5.53 31.4228 5.95C31.4228 6.33 31.3428 6.68667 31.1828 7.02C31.0228 7.35333 30.7128 7.73333 30.2528 8.16L28.6428 9.68H31.6528ZM37.7817 4V5.05L35.1817 11H33.4217L35.9317 5.32H33.6117V6.46H32.1717V4H37.7817ZM40.7369 6.63C41.7236 6.63 42.4502 6.82667 42.9169 7.22C43.3902 7.61333 43.6269 8.14 43.6269 8.8C43.6269 9.22667 43.5202 9.61667 43.3069 9.97C43.0936 10.3167 42.7669 10.5967 42.3269 10.81C41.8936 11.0167 41.3569 11.12 40.7169 11.12C40.2236 11.12 39.7369 11.0567 39.2569 10.93C38.7836 10.7967 38.3802 10.61 38.0469 10.37L38.6869 9.13C38.9536 9.33 39.2602 9.48667 39.6069 9.6C39.9536 9.70667 40.3102 9.76 40.6769 9.76C41.0836 9.76 41.4036 9.68 41.6369 9.52C41.8702 9.36 41.9869 9.13667 41.9869 8.85C41.9869 8.55 41.8636 8.32333 41.6169 8.17C41.3769 8.01667 40.9569 7.94 40.3569 7.94H38.5669L38.9269 4H43.1969V5.3H40.2769L40.1669 6.63H40.7369Z" fill="#D8D8D8"/>
<path fill-rule="evenodd" clip-rule="evenodd" d="M9.01639 1C4.91803 1 1.41803 3.59167 0 7.25C1.41803 10.9083 4.91803 13.5 9.01639 13.5C13.1148 13.5 16.6148 10.9083 18.0328 7.25C16.6148 3.59167 13.1148 1 9.01639 1ZM9.01639 11.4167C6.7541 11.4167 4.91803 9.55 4.91803 7.25C4.91803 4.95 6.7541 3.08333 9.01639 3.08333C11.2787 3.08333 13.1148 4.95 13.1148 7.25C13.1148 9.55 11.2787 11.4167 9.01639 11.4167ZM9.01639 4.75C7.65574 4.75 6.55738 5.86667 6.55738 7.25C6.55738 8.63333 7.65574 9.75 9.01639 9.75C10.377 9.75 11.4754 8.63333 11.4754 7.25C11.4754 5.86667 10.377 4.75 9.01639 4.75Z" fill="white"/>
<path d="M85.6261 4V11H84.0061V5.3H82.6061V4H85.6261ZM92.0721 9.68V11H86.7821V9.95L89.4821 7.4C89.7688 7.12667 89.9621 6.89333 90.0621 6.7C90.1621 6.5 90.2121 6.30333 90.2121 6.11C90.2121 5.83 90.1155 5.61667 89.9221 5.47C89.7355 5.31667 89.4588 5.24 89.0921 5.24C88.7855 5.24 88.5088 5.3 88.2621 5.42C88.0155 5.53333 87.8088 5.70667 87.6421 5.94L86.4621 5.18C86.7355 4.77333 87.1121 4.45667 87.5921 4.23C88.0721 3.99667 88.6221 3.88 89.2421 3.88C89.7621 3.88 90.2155 3.96667 90.6021 4.14C90.9955 4.30667 91.2988 4.54667 91.5121 4.86C91.7321 5.16667 91.8421 5.53 91.8421 5.95C91.8421 6.33 91.7621 6.68667 91.6021 7.02C91.4421 7.35333 91.1321 7.73333 90.6721 8.16L89.0621 9.68H92.0721Z" fill="#D8D8D8"/>
<path fill-rule="evenodd" clip-rule="evenodd" d="M73.7953 2.93333H72.3138V9.53333H62.6842V11C62.6842 11.4033 63.0175 11.7333 63.4249 11.7333H71.573L74.536 14.6667V3.66667C74.536 3.26333 74.2027 2.93333 73.7953 2.93333ZM70.8323 7.33333V0.733333C70.8323 0.33 70.499 0 70.0916 0H60.4619C60.0545 0 59.7212 0.33 59.7212 0.733333V11L62.6842 8.06667H70.0916C70.499 8.06667 70.8323 7.73667 70.8323 7.33333Z" fill="white"/>
</svg>
